#tb 0: 1/25
0,          9,          9,        1,   622080, 0x1511cae9
0,         10,         10,        1,   622080, 0xb88ca855
0,         11,         11,        1,   622080, 0x6e77e746
0,         12,         12,        1,   622080, 0x5da19198
0,         13,         13,        1,   622080, 0xee31c8a8
0,         14,         14,        1,   622080, 0xcbb7aac5
0,         15,         15,        1,   622080, 0x19972f1a
0,         16,         16,        1,   622080, 0xac7d34b9
0,         17,         17,        1,   622080, 0x4adfe592
0,         18,         18,        1,   622080, 0x5d738330
0,         19,         19,        1,   622080, 0xb60b4447
0,         20,         20,        1,   622080, 0x1e11acf4
0,         21,         21,        1,   622080, 0x5ed635d0
0,         22,         22,        1,   622080, 0x939857af
0,         23,         23,        1,   622080, 0x530b28fd
0,         24,         24,        1,   622080, 0x3bc0d5d3
0,         25,         25,        1,   622080, 0x77e0fe99
0,         26,         26,        1,   622080, 0xd2151c1e
0,         27,         27,        1,   622080, 0xe021a815
0,         28,         28,        1,   622080, 0xceae4f12
0,         29,         29,        1,   622080, 0x4c2f3330
0,         30,         30,        1,   622080, 0xf534c392
0,         31,         31,        1,   622080, 0x88f01c11
0,         32,         32,        1,   622080, 0x654d5df2
0,         33,         33,        1,   622080, 0x89ef6f8a
0,         34,         34,        1,   622080, 0x78a7b5f1
0,         35,         35,        1,   622080, 0x8152d67f
0,         36,         36,        1,   622080, 0x6590ff5f
0,         37,         37,        1,   622080, 0x51d2be96
0,         38,         38,        1,   622080, 0x483f65f7
0,         39,         39,        1,   622080, 0x7a69143d
0,         40,         40,        1,   622080, 0xeccc58ff
0,         41,         41,        1,   622080, 0xc4d2c370
